<?xml version="1.0" encoding="UTF-8" standalone="no" ?>
<!DOCTYPE svg PUBLIC "-//W3C//DTD SVG 1.1//EN" "http://www.w3.org/Graphics/SVG/1.1/DTD/svg11.dtd">
<svg xmlns="http://www.w3.org/2000/svg" xmlns:xlink="http://www.w3.org/1999/xlink" version="1.1" width="512" height="512" viewBox="0 0 512 512" xml:space="preserve">
<desc>Created with Fabric.js 5.2.4</desc>
<defs>
</defs>
<g transform="matrix(1 0 0 1 256 256)" id="9d5bdf6f-2606-4dd9-8b39-3f500ed0af33"  >
<rect style="stroke: none; stroke-width: 1; stroke-dasharray: none; stroke-linecap: butt; stroke-dashoffset: 0; stroke-linejoin: miter; stroke-miterlimit: 4; fill: rgb(255,255,255); fill-rule: nonzero; opacity: 1; visibility: hidden;" vector-effect="non-scaling-stroke"  x="-256" y="-256" rx="0" ry="0" width="512" height="512" />
</g>
<g transform="matrix(Infinity NaN NaN Infinity 0 0)" id="fa4210a9-b0b5-46ad-a687-dc03a1d54575"  >
</g>
<g transform="matrix(NaN NaN NaN NaN 0 0)"  >
<g style=""   >
</g>
</g>
<g transform="matrix(0.55 0 0 0.55 256 256)"  >
<g style="" vector-effect="non-scaling-stroke"   >
		<g transform="matrix(34.21 0 0 34.21 0.02 -128.29)"  >
<path style="stroke: none; stroke-width: 1; stroke-dasharray: none; stroke-linecap: butt; stroke-dashoffset: 0; stroke-linejoin: miter; stroke-miterlimit: 4; fill: rgb(255,250,26); fill-rule: nonzero; opacity: 1;" vector-effect="non-scaling-stroke"  transform=" translate(-11.69, -7.94)" d="M 14.58 15.181 C 15.018 14.449 15.662 14.074 16.516 14.064 C 17.369999999999997 14.054 17.801 13.619 17.814999999999998 12.763 C 17.826999999999998 11.911 18.197999999999997 11.267 18.929999999999996 10.831 C 19.663999999999994 10.392999999999999 19.822999999999997 9.804 19.404999999999998 9.058 C 18.988999999999997 8.314 18.988999999999997 7.57 19.404999999999998 6.824 C 19.822999999999997 6.08 19.665 5.492 18.929999999999996 5.054 C 18.197999999999997 4.615 17.825999999999997 3.9720000000000004 17.814999999999998 3.1160000000000005 C 17.801 2.2640000000000007 17.369999999999997 1.8290000000000006 16.516 1.8190000000000006 C 15.661999999999999 1.8070000000000006 15.017999999999999 1.4340000000000006 14.579999999999998 0.7020000000000006 C 14.141999999999998 -0.03199999999999936 13.552999999999999 -0.1909999999999994 12.808999999999997 0.22700000000000065 C 12.064999999999998 0.6430000000000007 11.318999999999997 0.6430000000000007 10.574999999999998 0.22700000000000065 C 9.83 -0.19 9.241 -0.032 8.803 0.702 C 8.366 1.435 7.721 1.808 6.868 1.819 C 6.016 1.829 5.583 2.264 5.571000000000001 3.1159999999999997 C 5.557 3.972 5.186 4.614 4.454 5.054 C 3.72 5.492 3.559 6.079 3.979 6.824 C 4.397 7.57 4.397 8.314 3.979 9.058 C 3.559 9.804 3.7190000000000003 10.394 4.454 10.831 C 5.186 11.267 5.558 11.911 5.571 12.763 C 5.582999999999999 13.618 6.016 14.054 6.867999999999999 14.064 C 7.7219999999999995 14.074 8.366 14.449 8.803999999999998 15.181000000000001 C 9.241999999999999 15.915000000000001 9.830999999999998 16.074 10.575 15.654000000000002 C 11.318999999999999 15.242 12.065 15.242 12.809 15.654000000000002 C 13.553 16.073 14.143 15.915 14.58 15.181 z M 11.694 12.614 C 9.112000000000002 12.614 7.0200000000000005 10.522 7.0200000000000005 7.94 C 7.0200000000000005 5.36 9.112 3.2680000000000007 11.694 3.2680000000000007 C 14.274000000000001 3.2680000000000007 16.366 5.360000000000001 16.366 7.94 C 16.366 10.522 14.274 12.614 11.694 12.614 z" stroke-linecap="round" />
</g>
		<g transform="matrix(34.21 0 0 34.21 -192.27 242.87)"  >
<path style="stroke: none; stroke-width: 1; stroke-dasharray: none; stroke-linecap: butt; stroke-dashoffset: 0; stroke-linejoin: miter; stroke-miterlimit: 4; fill: rgb(255,250,26); fill-rule: nonzero; opacity: 1;" vector-effect="non-scaling-stroke"  transform=" translate(-6.07, -18.79)" d="M 6.793 14.749 C 5.8950000000000005 14.749 5.775 14.331000000000001 5.775 14.331000000000001 L 2.2680000000000002 21.224 L 5.08 20.908 L 6.635 23.248 C 6.635 23.248 9.875 16.488 9.875 16.533 C 8.196 16.491 8.864 14.794 6.793 14.749 z" stroke-linecap="round" />
</g>
		<g transform="matrix(34.21 0 0 34.21 190.78 249.79)"  >
<path style="stroke: none; stroke-width: 1; stroke-dasharray: none; stroke-linecap: butt; stroke-dashoffset: 0; stroke-linejoin: miter; stroke-miterlimit: 4; fill: rgb(255,250,26); fill-rule: nonzero; opacity: 1;" vector-effect="non-scaling-stroke"  transform=" translate(-17.27, -18.99)" d="M 17.563 14.601 C 15.001 14.869000000000002 15.521999999999998 15.505 14.936 15.999 C 14.262 16.718 13.42 16.577 13.42 16.577 L 17.375 23.382 L 18.348 20.862000000000002 L 21.113999999999997 21.223000000000003 L 17.563 14.601 z" stroke-linecap="round" />
</g>
		<g transform="matrix(34.21 0 0 34.21 0.03 -128.28)"  >
<polygon style="stroke: none; stroke-width: 1; stroke-dasharray: none; stroke-linecap: butt; stroke-dashoffset: 0; stroke-linejoin: miter; stroke-miterlimit: 4; fill: rgb(255,250,26); fill-rule: nonzero; opacity: 1;" vector-effect="non-scaling-stroke"  points="0.98,-1.03 0,-3.01 -0.98,-1.03 -3.17,-0.71 -1.59,0.83 -1.96,3.01 0,1.98 1.96,3.01 1.59,0.83 3.17,-0.71 " />
</g>
</g>
</g>
</svg>